<svg width="1305" height="1044" xmlns="http://www.w3.org/2000/svg">
 <defs>
  <style>.cls-1{fill:#ffbe21;}.cls-12,.cls-14,.cls-16,.cls-17,.cls-18,.cls-19,.cls-2,.cls-20,.cls-6{fill:none;stroke-width:4px;}.cls-12,.cls-14,.cls-2{stroke:#a15842;}.cls-14,.cls-16,.cls-18,.cls-19,.cls-2,.cls-20,.cls-6{stroke-miterlimit:10;}.cls-3{fill:#4756df;}.cls-4{fill:#30242a;}.cls-5{fill:#3ec1f3;}.cls-17,.cls-20,.cls-6{stroke:#30242a;}.cls-12,.cls-14,.cls-16,.cls-17,.cls-19,.cls-6{stroke-linecap:round;}.cls-7{fill:#ff7235;}.cls-8{fill:#f5ebdd;}.cls-9{fill:#4856df;}.cls-10{fill:#ffb7d5;}.cls-11{fill:#a15842;}.cls-12,.cls-17{stroke-linejoin:round;}.cls-13{fill:#eaa58b;}.cls-15{fill:#eaa58a;}.cls-16{stroke:#eaa58b;}.cls-18,.cls-19{stroke:#4756df;}</style>
 </defs>
 <title>wfh_1</title>
 <g>
  <title>background</title>
  <rect fill="none" id="canvas_background" height="1046" width="1307" y="-1" x="-1"/>
 </g>
 <g>
  <title>Layer 1</title>
  <g stroke="null" id="Layer_7">
   <rect stroke="null" id="svg_1" height="481.85596" width="28.35058" y="562.13786" x="209.63404" class="cls-1"/>
   <line stroke="null" id="svg_2" y2="568.76377" x2="209.63404" y1="568.76377" x1="237.99616" class="cls-2"/>
   <path stroke="null" id="svg_3" d="m80.98289,947.30634a42.0295,42.0295 0 0 1 79.37239,0a42.0295,42.0295 0 0 1 37.36597,-28.13125a104.6986,104.6986 0 0 0 -13.18256,-18.46943l-15.26037,-17.16503a34.76871,34.76871 0 0 1 -4.61736,-39.62848l12.95169,-24.06798l0,0c-3.63617,3.65926 -24.65669,23.34075 -56.56264,23.34075s-52.92647,-19.68149 -56.56264,-23.34075l-0.05772,0l12.96323,24.06798a34.74562,34.74562 0 0 1 -4.75588,39.62848l-15.24883,17.09577a105.14879,105.14879 0 0 0 -13.21719,18.46943a42.04105,42.04105 0 0 1 36.81189,28.20052z" class="cls-3"/>
   <path stroke="null" id="svg_4" d="m200.04147,971.62827a42.0295,42.0295 0 0 0 -39.68619,28.21206a42.01796,42.01796 0 0 0 -79.37239,0a42.05259,42.05259 0 0 0 -50.19068,-26.88457a104.54853,104.54853 0 0 0 30.01283,71.03806l120.27064,0a104.54853,104.54853 0 0 0 30.01283,-70.87645a41.81018,41.81018 0 0 0 -11.04703,-1.4891z" class="cls-3"/>
   <path stroke="null" id="svg_5" d="m120.95767,843.23109c31.90595,0 52.92647,-19.68149 56.56264,-23.34075l-113.12528,0c3.63617,3.62463 24.65669,23.34075 56.56264,23.34075z" class="cls-4"/>
   <path stroke="null" id="svg_6" d="m80.98289,999.84033a42.01796,42.01796 0 0 1 79.37239,0a42.01796,42.01796 0 0 1 50.79094,-26.72296a104.6986,104.6986 0 0 0 -13.40188,-53.94229a42.0295,42.0295 0 0 0 -37.36597,28.13125a42.0295,42.0295 0 0 0 -79.37239,0a42.04105,42.04105 0 0 0 -36.81189,-28.09662a104.67551,104.67551 0 0 0 -13.3788,53.74605a42.05259,42.05259 0 0 1 50.19068,26.88457l-0.02309,0z" class="cls-5"/>
   <path stroke="null" id="svg_7" d="m129.33818,839.92967c2.30868,-14.12912 12.80163,-70.13767 39.18983,-100.57761" class="cls-6"/>
   <path stroke="null" id="svg_8" d="m117.15989,840.33369c-0.17315,-16.04532 -1.82386,-94.82899 -17.48824,-141.8337" class="cls-6"/>
   <ellipse stroke="null" id="svg_9" transform="matrix(1.0565802426791548,-0.4649064335110772,0.4649064335110772,1.0565802426791548,-351.8574256608997,-272.82865746678476) " ry="8.92" rx="39.65" cy="1017.89219" cx="57.80369" class="cls-4"/>
   <ellipse stroke="null" id="svg_10" transform="matrix(0.6864655326137853,-0.9280435731544094,0.9280435731544094,0.6864655326137853,-961.0247087136131,-234.69514475151504) " ry="7.65" rx="21.94" cy="1243.26125" cx="-19.37533" class="cls-4"/>
   <ellipse stroke="null" id="svg_11" transform="matrix(1.141360596712186,-0.17261456894692906,0.17261456894692906,1.141360596712186,-225.13469392574325,-180.56693702162488) " ry="8.45" rx="47.85" cy="862.74366" cx="119.20942" class="cls-4"/>
   <path stroke="null" id="svg_12" d="m40.23471,714.52223l0,0.0808a20.42027,20.42027 0 0 1 -16.66866,37.11202l0,0.06926c25.28004,11.3587 49.53271,12.22446 54.15007,1.93929s-12.18983,-27.84267 -37.48141,-39.20137z" class="cls-7"/>
   <path stroke="null" id="svg_13" d="m114.97819,632.19473c-5.37922,-1.39675 -12.37452,6.74134 -17.48824,19.33519c-6.15263,-15.295 -15.07567,-25.53399 -21.08978,-23.54853s-7.08764,15.51432 -2.92048,31.4673c-11.61266,-7.06456 -22.07097,-9.4425 -25.56862,-5.11372c-4.45575,5.51774 4.13254,19.83155 19.18512,31.98675a86.24071,86.24071 0 0 0 13.75973,9.16546a20.40872,20.40872 0 0 1 32.37922,-11.08166a86.57547,86.57547 0 0 0 5.37922,-15.09876c4.85977,-18.71184 3.23215,-35.33433 -3.63617,-37.11202z" class="cls-7"/>
   <path stroke="null" id="svg_14" d="m232.32835,717.16566c-1.66225,-5.30996 -12.27063,-6.92604 -25.66097,-4.61736c9.71954,-13.30954 13.69047,-26.29585 8.8307,-30.34759s-16.92262,2.19325 -28.25823,14.16375c-0.13852,-13.59812 -3.65926,-23.73322 -9.177,-24.41428c-7.02993,-0.86575 -14.64857,14.00214 -17.00342,33.18726a86.47158,86.47158 0 0 0 -0.50791,16.54169a20.40872,20.40872 0 0 1 26.54981,21.62078a87.57974,87.57974 0 0 0 15.66439,-3.46302c18.4348,-5.73707 31.67508,-15.9068 29.56264,-22.67123z" class="cls-7"/>
   <path stroke="null" id="svg_15" d="m179.85207,725.3961a20.38564,20.38564 0 0 0 -19.30056,-3.7516c0.65797,9.13083 2.96665,16.16075 6.44121,18.71184c3.24369,3.00128 10.7469,4.00556 20.08551,2.90894a20.37409,20.37409 0 0 0 -7.22617,-17.86918z" class="cls-4"/>
   <path stroke="null" id="svg_16" d="m94.24625,681.09255a20.39718,20.39718 0 0 0 -13.39034,14.39461c8.08038,4.27106 15.26037,6.00257 19.30056,4.43266c4.25951,-1.15434 9.07311,-7.00684 13.07867,-15.51432a20.37409,20.37409 0 0 0 -18.98889,-3.31295z" class="cls-4"/>
   <path stroke="null" id="svg_17" d="m42.48567,748.79457a9.91578,9.91578 0 0 1 8.13809,-18.0077a20.39718,20.39718 0 0 0 -10.38906,-16.16075l-16.70329,37.08893a20.42027,20.42027 0 0 0 18.95426,-2.92048z" class="cls-8"/>
   <path stroke="null" id="svg_18" d="m38.2377,736.0622a9.91578,9.91578 0 0 0 4.24797,12.69774a20.35101,20.35101 0 0 0 8.13809,-18.0077a9.91578,9.91578 0 0 0 -12.38606,5.30996z" class="cls-9"/>
   <path stroke="null" id="svg_19" d="m801.09453,754.69324l-293.58318,0l4.96366,-19.69303l128.87047,0l49.15178,-192.22062a121.69048,121.69048 0 0 1 117.8927,-91.53913l0,0c66.13211,0 114.52203,62.33434 98.11886,126.40018l-30.37067,118.77a77.47927,77.47927 0 0 1 -75.04361,58.2826z" class="cls-10"/>
   <rect stroke="null" id="svg_20" transform="matrix(0,-1.1543395519256592,1.1543395519256592,0,-2425.6539529035836,1635.5625345887056) " height="162.09" width="18.06" y="2542.96004" x="587.4437" class="cls-11"/>
   <path stroke="null" id="svg_21" d="m727.71317,1032.79673l-48.66696,-289.68151l-151.42626,0l-48.66696,289.68151a9.61565,9.61565 0 0 0 9.48867,11.19709l0,0a9.62719,9.62719 0 0 0 9.39632,-7.57247l63.74263,-293.30614l83.5511,0l63.71954,293.30614a9.61565,9.61565 0 0 0 9.39632,7.57247l0,0a9.61565,9.61565 0 0 0 9.46558,-11.19709z" class="cls-11"/>
   <rect stroke="null" id="svg_22" transform="matrix(0,-1.1543395519256592,1.1543395519256592,0,-2425.6653974855517,1945.5834152245288) " height="162.09" width="18.06" y="2677.24996" x="856.0137" class="cls-1"/>
   <path stroke="null" id="svg_23" d="m882.71788,1032.79673l-48.71313,-289.68151l-151.36855,0l-48.66696,289.68151a9.61565,9.61565 0 0 0 9.48867,11.19709l0,0a9.60411,9.60411 0 0 0 9.38478,-7.57247l63.71954,-293.30614l83.56264,0l63.71954,293.30614a9.61565,9.61565 0 0 0 9.40787,7.57247l0,0a9.61565,9.61565 0 0 0 9.46558,-11.19709z" class="cls-1"/>
   <path stroke="null" id="svg_24" d="m729.77944,696.41064l18.56178,-72.59641l-123.01797,0a108.6349,108.6349 0 0 0 -105.24114,81.70415l-12.57076,49.17486l147.21292,0a77.47927,77.47927 0 0 0 75.05516,-58.2826z" class="cls-10"/>
   <line stroke="null" id="svg_25" y2="733.07246" x2="671.69307" y1="733.07246" x1="515.51093" class="cls-12"/>
   <line stroke="null" id="svg_26" y2="625.33795" x2="669.26896" y1="732.34523" x1="641.89957" class="cls-12"/>
   <line stroke="null" id="svg_27" y2="621.33239" x2="818.99834" y1="621.33239" x1="892.87607" class="cls-12"/>
   <line stroke="null" id="svg_28" y2="569.38711" x2="812.0723" y1="569.38711" x1="906.72815" class="cls-12"/>
   <path stroke="null" id="svg_29" d="m561.93847,545.93093s-92.61266,25.22232 -131.95255,44.90381c-64.86234,32.4254 -64.64301,53.82685 -104.19069,173.63576c-36.51176,110.72425 -40.52886,164.3895 -90.8927,166.51348c-38.45105,1.61608 -51.05644,14.19838 -57.28987,31.44421l152.1535,72.1924a7.56092,7.56092 0 0 0 9.8696,-3.20906l0,0a7.56092,7.56092 0 0 0 -2.85122,-10.15819l-3.19752,-1.84694c14.14066,-17.1304 41.4177,-53.63062 68.61394,-109.07354l17.31509,8.08038s27.96965,-36.35015 32.40231,-77.58316c5.7717,-53.24968 2.30868,-89.1381 26.63061,-109.97393l283.62123,-184.97137l-200.23174,0.04617z" class="cls-7"/>
   <path stroke="null" id="svg_30" d="m219.95383,939.53763c3.01283,-6.26806 19.75075,-44.45362 29.37794,-39.83626c12.52458,6.00257 -19.98162,44.33818 -19.98162,44.33818l-9.39632,-4.50192z" class="cls-4"/>
   <path stroke="null" id="svg_31" d="m177.60111,962.97073l152.1535,72.18085a7.54938,7.54938 0 0 0 7.01838,-13.35571l-3.19752,-1.84694l0.32322,-0.39248l-104.58316,-49.3711a64.8508,64.8508 0 0 0 3.27832,-13.41343c15.65284,2.7127 47.32792,5.63318 47.48953,-7.4224c0.17315,-12.16674 -34.42241,-7.28388 -47.06242,-3.84395a51.54126,51.54126 0 0 0 -2.70115,-13.7251c-34.8726,2.40103 -46.73921,14.63703 -52.71869,31.19025z" class="cls-4"/>
   <path stroke="null" id="svg_32" d="m429.98591,590.83474c-7.28388,3.63617 -13.73664,7.13382 -19.51988,10.64301l-8.87687,28.43138l34.16845,-24.06798l31.50193,25.11843l-11.61266,-34.43395l35.68064,-16.34545l-27.57717,-3.46302a343.47373,343.47373 0 0 0 -33.76443,14.11757z" class="cls-10"/>
   <polygon stroke="null" id="svg_33" points="530.6558837890625,576.0360717773438 528.3472290039062,591.0771484375 543.3997802734375,585.2939453125 530.6558837890625,576.0360717773438 " class="cls-10"/>
   <polygon stroke="null" id="svg_34" points="443.8380126953125,651.2759399414062 421.84783935546875,680.2152099609375 390.58831787109375,665.1742553710938 409.1038818359375,696.4221801757812 380.1646423339844,720.7326049804688 417.2073669433594,716.1036987304688 429.9512634277344,758.9412231445312 442.68365478515625,716.1036987304688 483.200927734375,704.525634765625 443.8380126953125,688.3187255859375 443.8380126953125,651.2759399414062 " class="cls-10"/>
   <path stroke="null" id="svg_35" d="m320.20822,872.23964l2.70115,-7.71099l36.93887,-1.96238l-30.01283,-20.43181l13.36725,-32.00984l-30.23215,20.15477l-5.7717,-6.23343c-4.61736,15.20265 -8.70372,28.74305 -12.69774,40.6443l0.18469,0c0.43865,-1.3044 0.8773,-2.62035 1.31595,-3.95938l24.2065,11.50877z" class="cls-10"/>
   <path stroke="null" id="svg_36" d="m320.20822,872.23964l-24.24113,-11.46259c-0.43865,1.33903 -0.8773,2.65498 -1.31595,3.95938c-14.64857,43.63404 -27.99273,65.45105 -59.72553,66.79009c-1.55836,0 -3.059,0.15006 -4.53655,0.25395a51.54126,51.54126 0 0 1 2.70115,13.7251c12.69774,-3.46302 47.23557,-8.32279 47.06242,3.84395c-0.18469,13.05558 -31.83668,10.1351 -47.48953,7.4224a64.8508,64.8508 0 0 1 -3.31295,13.41343l104.58316,49.3711c14.22146,-17.31509 41.26764,-53.63062 68.2561,-108.61181l-81.98119,-38.70501z" class="cls-13"/>
   <path stroke="null" id="svg_37" d="m412.57847,784.40594l-3.46302,31.25952l-32.41385,-1.15434l27.78495,20.84737l-10.38906,37.04276l27.80804,-24.32193l24.99145,16.66866q1.03891,-3.31295 1.90466,-6.70671l-9.58102,-23.8602l14.84481,-16.26464c0.24241,-3.02437 0.47328,-6.00257 0.6926,-8.89996l-25.92647,4.32877l-16.2531,-28.93929z" class="cls-10"/>
   <path stroke="null" id="svg_38" d="m340.37453,719.42817c-2.92048,9.02694 -6.06028,18.82728 -9.5233,29.48183l30.79778,1.88157l-21.27448,-31.36341z" class="cls-10"/>
   <path stroke="null" id="svg_39" d="m449.12486,1001.43332c0.48482,-6.92604 1.99701,-48.5977 12.64002,-47.84737c13.85207,0.96965 -2.25096,48.57461 -2.25096,48.57461l-10.38906,-0.72723z" class="cls-4"/>
   <path stroke="null" id="svg_40" d="m705.49213,547.62781s-115.76871,21.47072 -179.44208,48.08979c-64.28517,26.88457 -63.66183,74.62805 -52.09534,204.3181c10.38906,116.10347 28.95084,172.48142 -9.23472,189.84268c-35.02266,15.92989 -47.1894,35.89996 -45.52715,54.16161l172.40061,0a7.39932,7.39932 0 0 0 7.39932,-7.39932l0,0a7.39932,7.39932 0 0 0 -7.39932,-7.39932l-2.90894,0c5.43694,-17.78837 13.32108,-52.51091 14.40616,-109.97393l21.37837,0s10.98931,-50.79094 -1.15434,-96.08722c-12.69774,-47.4549 -24.31039,-55.55836 -31.24797,-87.97222l103.7405,0c79.22232,0 138.52075,-73.27747 121.28646,-150.59514c-5.37922,-24.16033 -13.18256,-36.93887 -13.18256,-36.93887l-98.41899,-0.04617z" class="cls-7"/>
   <polygon stroke="null" id="svg_41" points="633.7152709960938,615.3875732421875 612.4639282226562,642.1220092773438 579.3689575195312,630.7518310546875 598.9812622070312,662.85400390625 573.5165405273438,697.5880126953125 607.0846557617188,683.6898193359375 625.7965698242188,718.1814575195312 627.9204711914062,680.2152099609375 660.3343505859375,673.2776489257812 632.5609741210938,655.9048461914062 633.7152709960938,615.3875732421875 " class="cls-10"/>
   <path stroke="null" id="svg_42" d="m587.47246,821.76037l19.62377,32.10218l-25.46473,34.73408l33.56819,-13.85207l12.44378,22.93673c1.82386,-17.823 2.72424,-44.18812 -3.09363,-69.50278l-3.97093,4.99829l-33.10646,-11.41642z" class="cls-10"/>
   <path stroke="null" id="svg_43" d="m500.92008,919.22126l-1.4891,-17.89226l37.5853,-14.4985l-35.57674,-7.37623l3.92475,-39.05131l-23.08679,30.20907l-0.6926,-0.28858c2.21633,18.64258 4.15562,34.93031 5.2407,49.0248l0,-0.12698l14.09449,0z" class="cls-10"/>
   <path stroke="null" id="svg_44" d="m591.59345,1029.19519l-2.90894,0c5.43694,-17.78837 13.32108,-52.51091 14.40616,-109.97393l-116.29971,0l0,0.10389c0.09235,1.15434 0.17315,2.30868 0.25395,3.46302c0,0.10389 0,0.21932 0,0.32322c2.41257,36.07311 -1.52373,57.17444 -22.3711,66.65157c-35.02266,15.92989 -47.1894,35.89996 -45.52715,54.16161l172.44679,0a7.39932,7.39932 0 0 0 0,-14.79863l0,0.06926z" class="cls-13"/>
   <polygon stroke="null" id="svg_45" points="745.9517211914062,550.6175537109375 692.7713623046875,555.3272094726562 698.3121337890625,576.7056274414062 664.2937622070312,594.851806640625 706.6695556640625,600.5196533203125 721.0064697265625,632.2755737304688 735.7473754882812,599.388427734375 778.8504028320312,592.5778198242188 741.4151611328125,573.30029296875 745.9517211914062,550.6175537109375 " class="cls-10"/>
   <path stroke="null" id="svg_46" d="m492.48186,701.05108l12.69774,-40.51732l37.04276,5.7717l-28.93929,-25.46473l20.77811,-24.31039l-38.1971,13.85207l-6.10646,-10.46986c-9.82343,11.12783 -15.75673,24.94528 -18.93117,42.71056l6.51048,0.20778l15.14493,38.22018z" class="cls-10"/>
   <path stroke="null" id="svg_47" d="m591.59345,573.94675c-7.81488,2.17016 -15.59513,4.44421 -23.19068,6.78752l30.60154,20.77811l-7.41086,-27.56563z" class="cls-10"/>
   <polygon stroke="null" id="svg_48" points="541.1026611328125,761.2498779296875 524.8956909179688,727.6817016601562 516.7922973632812,764.7244873046875 486.6986083984375,762.415771484375 514.4720458984375,786.7261962890625 497.11077880859375,827.2434692382812 527.2506103515625,799.1468505859375 552.2305297851562,827.9476318359375 544.5772094726562,784.4059448242188 570.0419311523438,750.8377075195312 541.1026611328125,761.2498779296875 " class="cls-10"/>
   <path stroke="null" id="svg_49" d="m472.3848,1015.65478c15.30654,-4.22488 45.18085,-15.09876 39.77854,-26.97692c-5.03292,-11.08166 -34.23771,8.08038 -44.19966,16.61095a51.01026,51.01026 0 0 0 -9.5233,-12.44378c-30.22061,15.38735 -40.82899,34.01839 -39.24754,51.14879l172.40061,0a7.39932,7.39932 0 0 0 7.39932,-7.39932l0,0a7.39932,7.39932 0 0 0 -7.39932,-7.39932l-116.47286,0a65.61266,65.61266 0 0 0 -2.73578,-13.5404z" class="cls-4"/>
   <line stroke="null" id="svg_50" y2="737.34352" x2="561.7884" y1="737.75908" x1="591.59345" class="cls-14"/>
   <path stroke="null" id="svg_51" d="m613.75677,568.89075c-30.87858,7.8726 -63.88115,17.53442 -88.88415,27.96965c-53.33049,22.33647 -61.97649,58.99829 -56.79351,144.9735" class="cls-14"/>
   <rect stroke="null" id="svg_52" height="481.85596" width="28.35058" y="562.13786" x="977.28138" class="cls-1"/>
   <line stroke="null" id="svg_53" y2="568.76377" x2="977.28138" y1="568.76377" x1="1005.63196" class="cls-2"/>
   <path stroke="null" id="svg_54" d="m594.35232,199.80222c-16.16075,-2.30868 -53.18042,15.06413 -54.40402,49.40573s29.43566,45.37709 34.3416,47.83583l71.14195,-11.04703l4.90594,-78.49509l-55.98547,-7.69944z" class="cls-11"/>
   <circle stroke="null" id="svg_55" r="55.29286" cy="59.22675" cx="720.03681" class="cls-11"/>
   <path stroke="null" id="svg_56" d="m684.17148,97.25069c3.37067,1.55836 -25.01454,-65.79735 -39.5015,-55.29286c-13.63275,9.91578 22.38264,47.39718 39.5015,55.29286z" class="cls-4"/>
   <path stroke="null" id="svg_57" d="m685.74138,101.37169c3.09363,3.69389 75.51689,-21.64387 65.49723,-36.25781c-9.58102,-14.05986 -68.59086,32.55238 -65.49723,36.25781z" class="cls-4"/>
   <path stroke="null" id="svg_58" d="m781.88632,286.6201s48.62078,-40.51732 17.31509,-85.66354c-19.9239,-28.77769 -74.09706,-17.31509 -74.09706,-17.31509c1.31595,-15.80291 5.61009,-61.33006 -28.62762,-86.3446s-77.67551,-11.84352 -93.5015,7.89568s-11.84352,56.62036 -17.10731,82.95084s-1.7546,44.23429 14.47542,52.66097c14.764,7.66481 32.13681,3.03591 32.13681,3.03591l-1.84694,27.78495s-33.47585,1.25823 -53.98846,8.68063c-49.42882,17.89226 -136.26978,140.59856 -136.26978,140.59856c-54.40402,-2.30868 -105.34503,-4.61736 -105.34503,-4.61736l26.63061,78.72596s67.13639,21.99017 115.75717,9.23472c49.32493,-12.91706 96.08722,-82.18898 96.08722,-82.18898l16.16075,46.30056l-27.78495,77.56007l241.94957,0l-40.51732,-71.77683c7.00684,-63.65028 18.57332,-187.52246 18.57332,-187.52246z" class="cls-13"/>
   <path stroke="null" id="svg_59" d="m704.14156,268.73938l-63.48868,115.12228l-25.97264,-111.0821c-11.41642,1.15434 -26.63061,3.39376 -37.92005,7.48012c-49.54425,17.93844 -136.38522,140.64473 -136.38522,140.64473c-54.40402,-2.30868 -105.34503,-4.61736 -105.34503,-4.61736l26.63061,78.72596s67.13639,21.99017 115.75717,9.23472c49.32493,-12.91706 96.08722,-82.18898 96.08722,-82.18898l16.16075,46.30056l-27.78495,77.56007l241.94957,0l-40.51732,-71.76529c6.92604,-63.67337 18.46943,-187.54555 18.46943,-187.54555a112.27106,112.27106 0 0 0 -34.72253,-13.85207c-13.81744,-3.11672 -29.00855,-1.25823 -42.91834,-4.0171z" class="cls-3"/>
   <path stroke="null" id="svg_60" d="m375.35102,537.82747l200.48569,0l-45.58487,-143.96923a20.92818,20.92818 0 0 0 -19.95853,-14.62548l-169.43396,0a20.92818,20.92818 0 0 0 -19.95853,27.2655l37.67764,119.05858a17.59213,17.59213 0 0 0 16.77255,12.27063z" class="cls-4"/>
   <path stroke="null" id="svg_61" d="m405.22533,444.3606c5.32151,-7.27234 29.45875,11.93587 31.23643,13.51732c0.92347,-1.58145 13.49423,-20.77811 22.70586,-13.51732c7.99957,6.30269 -9.58102,34.45704 -14.25609,41.63703a2.08935,2.08935 0 0 1 -3.10517,0c-8.53057,-7.17999 -41.19838,-35.33433 -36.58102,-41.63703z" class="cls-11"/>
   <ellipse stroke="null" id="svg_62" transform="matrix(1.1021181580651807,-0.3432715642213098,0.3432715642213098,1.1021181580651807,-292.88790271929975,-192.6492142208947) " ry="10.13" rx="3.31" cy="708.15032" cx="436.24682" class="cls-11"/>
   <path stroke="null" id="svg_63" d="m692.25186,521.62054a12.45532,12.45532 0 0 1 -11.86661,16.16075l-305.03423,0a17.59213,17.59213 0 0 1 -16.77255,-12.27063l-1.24669,-3.9363l334.92008,0.04617z" class="cls-4"/>
   <rect stroke="null" id="svg_64" height="28.93929" width="893.70122" y="537.82747" x="160.78239" class="cls-1"/>
   <path stroke="null" id="svg_65" d="m876.12661,696.41064l18.56178,-72.59641l-108.27705,0a108.62335,108.62335 0 0 0 -105.22959,81.70415l-12.5823,49.17486l132.46046,0a77.49081,77.49081 0 0 0 75.0667,-58.2826z" class="cls-10"/>
   <line stroke="null" id="svg_66" y2="753.75823" x2="666.87948" y1="735.65818" x1="671.16207" class="cls-12"/>
   <path stroke="null" id="svg_67" d="m325.37966,420.45422c-13.47114,6.7298 -20.20094,17.94998 -20.20094,25.81103c0,11.47414 11.68192,13.63275 11.68192,13.63275s-8.71526,13.70201 6.44121,20.13168c0,0 0,14.10603 14.11757,14.10603c0,0 -1.87003,11.00086 12.85934,12.03976s29.88585,-6.649 31.16717,-11.6242c1.46601,-5.87559 -2.49337,-10.79307 -13.18256,-12.35143c0,0 14.42924,-6.74134 12.14365,-15.24883s-12.03976,-8.31124 -12.03976,-8.31124s9.33861,-5.59855 4.35186,-13.85207s-14.52159,-5.39077 -14.52159,-5.39077s2.49337,-5.7717 -1.87003,-10.16973c-5.19453,-5.19453 -27.531,1.36212 -27.531,1.36212l-3.41685,-10.1351z" class="cls-15"/>
   <path stroke="null" id="svg_68" d="m337.52331,494.67826a168.34888,168.34888 0 0 0 35.16118,-12.69774" class="cls-14"/>
   <path stroke="null" id="svg_69" d="m323.26722,479.96043a180.07697,180.07697 0 0 0 47.76657,-20.92818" class="cls-14"/>
   <path stroke="null" id="svg_70" d="m315.7063,461.53717a149.14067,149.14067 0 0 0 43.68021,-21.15904" class="cls-14"/>
   <path stroke="null" id="svg_71" d="m799.25914,200.95656c-19.9239,-28.77769 -74.09706,-17.31509 -74.09706,-17.31509c1.31595,-15.80291 5.61009,-61.33006 -28.62762,-86.3446s-77.67551,-11.84352 -93.5015,7.89568c-6.44121,8.08038 -9.59256,18.95426 -11.42796,30.82087c10.50449,1.76614 25.91492,-1.84694 25.91492,-1.84694c21.0667,23.69859 39.94015,27.46174 39.94015,27.46174c14.74092,-14.74092 40.59812,-14.25609 44.79992,8.08038c4.3634,23.19068 -32.67935,33.61437 -32.67935,33.61437s-3.46302,41.67166 15.00641,56.72425a43.36854,43.36854 0 0 0 19.4968,8.73835c13.85207,2.75887 29.1009,0.90038 43.02224,3.99401a112.27106,112.27106 0 0 1 34.72253,13.85207a88.88415,88.88415 0 0 0 11.5434,-12.30526c12.14365,-15.39889 26.66524,-43.35699 5.88713,-73.36982z" class="cls-11"/>
   <path stroke="null" id="svg_72" d="m639.49854,125.71671c-6.92604,5.7717 -15.00641,9.23472 -24.31039,11.5434" class="cls-16"/>
   <path stroke="null" id="svg_73" d="m632.09922,246.43754a86.02138,86.02138 0 0 0 15.47969,-6.92604" class="cls-14"/>
   <line stroke="null" id="svg_74" y2="173.46019" x2="681.52804" y1="180.03993" x1="671.00047" class="cls-14"/>
   <path stroke="null" id="svg_75" d="m610.59388,210.9416c2.1817,1.35058 10.38906,2.40103 13.64429,-3.86704" class="cls-14"/>
   <circle stroke="null" id="svg_76" r="3.94784" cy="177.3734" cx="632.04151" class="cls-4"/>
   <circle stroke="null" id="svg_77" r="3.94784" cy="172.14424" cx="599.31598" class="cls-4"/>
   <path stroke="null" id="svg_78" d="m610.43227,187.39307c-0.78495,2.48183 -1.46601,5.18298 -1.01582,6.08337a6.649,6.649 0 0 0 2.70115,2.68961" class="cls-14"/>
   <circle stroke="null" id="svg_79" r="13.82898" cy="204.89286" cx="675.95258" class="cls-8"/>
   <ellipse stroke="null" id="svg_80" transform="matrix(0.22045617779969726,-1.1330926152834462,1.1330926152834462,0.22045617779969726,-1009.9430550565085,1142.0243469418401) " ry="17.69" rx="19.65" cy="1199.24698" cx="1090.76856" class="cls-6"/>
   <ellipse stroke="null" id="svg_81" transform="matrix(0.22045617779969726,-1.1330926152834462,1.1330926152834462,0.22045617779969726,-1035.2112369150018,1219.7816199751235) " ry="17.69" rx="19.65" cy="1251.53694" cx="1164.13857" class="cls-6"/>
   <line stroke="null" id="svg_82" y2="173.3563" x2="618.35104" y1="172.50209" x1="610.37455" class="cls-6"/>
   <line stroke="null" id="svg_83" y2="199.94074" x2="725.50838" y1="185.16519" x1="727.80552" class="cls-6"/>
   <line stroke="null" id="svg_84" y2="424.48287" x2="571.95813" y1="391.96512" x1="560.78413" class="cls-17"/>
   <line stroke="null" id="svg_85" y2="466.05064" x2="590.43911" y1="466.05064" x1="619.81705" class="cls-17"/>
   <polyline stroke="null" id="svg_86" points="642.97314453125,382.70733642578125 652.23095703125,427.853515625 652.23095703125,469.5252380371094 " class="cls-17"/>
   <polyline stroke="null" id="svg_87" points="581.400634765625,279.25543212890625 598.9812622070312,319.0339660644531 578.1453857421875,316.72528076171875 652.23095703125,427.853515625 " class="cls-17"/>
   <polyline stroke="null" id="svg_88" points="752.6930541992188,274.5226135253906 722.8534545898438,316.72528076171875 750.6383666992188,314.405029296875 648.75634765625,404.6974792480469 " class="cls-17"/>
   <line stroke="null" id="svg_89" y2="385.02754" x2="746.00945" y1="416.0331" x1="768.2074" class="cls-17"/>
   <path stroke="null" id="svg_90" d="m793.89146,530.31272c-12.08594,-4.02865 -33.77598,-11.80889 -46.85464,-19.62377" class="cls-17"/>
   <circle stroke="null" id="svg_91" r="22.70586" cy="220.37255" cx="460.51819" class="cls-10"/>
   <rect stroke="null" id="svg_92" transform="matrix(0.7368897934238635,0.8885343175632933,-0.8885343175632933,0.7368897934238635,-365.93072484889717,-668.8036023743673) " rx="5" height="10.32" width="27.94" y="-64.08475" x="929.23276" class="cls-3"/>
   <path stroke="null" id="svg_93" d="m416.43397,149.38067l-13.29799,-16.04532l-239.02909,198.2001a10.21591,10.21591 0 0 0 -1.33903,14.38307l0.2655,0.32322a10.20436,10.20436 0 0 0 14.37153,1.33903l74.73194,-61.98803l0,217.5122l20.85892,0l0,-234.8273l143.43823,-118.89697z" class="cls-5"/>
   <path stroke="null" id="svg_94" d="m377.91366,153.99803l6.66054,8.08038a28.58145,28.58145 0 0 1 5.19453,9.48867" class="cls-18"/>
   <circle stroke="null" id="svg_95" r="27.20777" cy="263.19855" cx="262.5605" class="cls-3"/>
   <circle stroke="null" id="svg_96" r="10.45831" cy="263.19855" cx="262.5605" class="cls-5"/>
   <line stroke="null" id="svg_97" y2="236.24472" x2="444.35744" y1="207.47858" x1="479.16078" class="cls-2"/>
   <path stroke="null" id="svg_98" d="m434.07227,146.47173a28.65071,28.65071 0 0 1 -18.72339,-10.18127l-9.23472,-11.16246a19.27747,19.27747 0 0 0 -27.12698,-2.528l0,0a19.25438,19.25438 0 0 0 -2.528,27.11544l9.23472,11.19709a28.63916,28.63916 0 0 1 6.49893,20.22403l-2.30868,33.75289a77.23686,77.23686 0 0 0 11.95896,46.91236l2.95511,4.61736l110.73579,-91.8508l-3.97093,-3.72852a77.20223,77.20223 0 0 0 -43.8649,-20.44335l-33.62591,-3.92475z" class="cls-5"/>
   <path stroke="null" id="svg_99" d="m272.99573,503.10494l-20.85892,0l-30.83241,8.40359a27.27704,27.27704 0 0 0 -20.09705,26.31894l122.70629,0a27.27704,27.27704 0 0 0 -20.10859,-26.31894l-30.80932,-8.40359z" class="cls-5"/>
   <line stroke="null" id="svg_100" y2="241.99333" x2="393.18557" y1="158.23445" x1="494.52504" class="cls-19"/>
   <line stroke="null" id="svg_101" y2="500.71545" x2="272.99573" y1="500.71545" x1="251.62891" class="cls-19"/>
   <line stroke="null" id="svg_102" y2="523.39823" x2="319.16932" y1="523.39823" x1="205.25909" class="cls-19"/>
   <path stroke="null" id="svg_103" d="m861.77817,835.62399c2.30868,-19.62377 1.15434,-63.67337 -24.31039,-97.24156s9.23472,-19.62377 19.62377,-10.38906c16.62249,14.77555 31.25952,28.93929 43.99188,76.40573l-39.30526,31.22488z" class="cls-4"/>
   <path stroke="null" id="svg_104" d="m1169.25959,1043.99382l135.9004,0l0,-4.44421a23.62933,23.62933 0 0 0 -23.62933,-23.61779l-112.97521,0l0.70415,28.06199z" class="cls-11"/>
   <path stroke="null" id="svg_105" d="m837.74482,914.24605l28.66225,129.74777l53.26123,0l0,-8.08038a19.68149,19.68149 0 0 0 -19.62377,-19.68149l0,0s26.61907,-19.95853 42.826,-39.64002c0,0 27.78495,33.85678 67.14793,28.06199l2.85122,13.85207a31.94058,31.94058 0 0 0 31.22488,25.48782l129.08979,0c57.25524,0 85.42113,-8.73835 87.0372,-41.3369a9.23472,9.23472 0 0 0 -9.23472,-9.60411l-36.03848,0a9.92732,9.92732 0 0 1 -7.74562,-3.70543l-15.34117,-19.03506a37.81616,37.81616 0 0 0 -38.75118,-12.89397l-30.8555,7.88414s-54.66952,-78.56435 -104.19069,-133.12998c-47.32792,-52.09534 -136.35059,-57.71698 -171.41942,10.1351a106.64943,106.64943 0 0 0 -8.89996,71.93844z" class="cls-11"/>
   <path stroke="null" id="svg_106" d="m1160.45198,1043.99382l0,-4.44421a23.61779,23.61779 0 0 0 -23.62933,-23.61779l-15.73365,0" class="cls-20"/>
   <path stroke="null" id="svg_107" d="m945.01759,977.51541c8.08038,-9.61565 35.65755,-45.01924 33.68363,-79.64943c-2.11244,-37.0543 -24.31039,-56.72425 -24.31039,-56.72425" class="cls-6"/>
   <path stroke="null" id="svg_108" d="m1003.01161,955.73302s1.47755,27.39248 4.44421,47.84737" class="cls-6"/>
   <line stroke="null" id="svg_109" y2="1042.83948" x2="891.88334" y1="1032.13875" x1="891.88334" class="cls-6"/>
   <line stroke="null" id="svg_110" y2="1042.83948" x2="904.61571" y1="1032.13875" x1="904.61571" class="cls-6"/>
   <line stroke="null" id="svg_111" y2="1042.83948" x2="1134.98725" y1="1032.13875" x1="1134.98725" class="cls-6"/>
   <line stroke="null" id="svg_112" y2="1042.83948" x2="1147.71962" y1="1032.13875" x1="1147.71962" class="cls-6"/>
   <circle stroke="null" id="svg_113" r="5.20608" cy="995.67317" cx="1181.86498" class="cls-4"/>
   <path stroke="null" id="svg_114" d="m1153.45668,957.31446l0,-0.13852l-31.24797,8.08038l30.8555,-7.88414l0.39248,-0.05772z" class="cls-4"/>
   <path stroke="null" id="svg_115" d="m1076.55458,1016.45128c-9.05002,4.61736 -21.8401,13.65584 -20.77811,27.3463l50.25994,0l10.56221,-16.65712a19.15049,19.15049 0 0 1 16.16075,-8.89996l3.35913,0l17.22275,-60.57974l-0.25395,-0.2655l-30.8555,7.88414l-29.53955,37.83925a48.66696,48.66696 0 0 1 -16.13767,13.33262z" class="cls-4"/>
   <path stroke="null" id="svg_116" d="m1003.15013,860.45383s-13.97905,48.38991 31.16717,66.66311c22.89055,9.23472 41.90253,2.22788 55.09663,-6.92604c-19.93544,-26.54981 -46.3121,-60.34887 -71.36127,-87.96067a121.3788,121.3788 0 0 0 -21.03207,-18.36554c-6.83369,9.30398 -14.31381,32.32151 6.12954,46.58914z" class="cls-13"/>
   <circle stroke="null" id="svg_117" r="19.10431" cy="876.44143" cx="887.83161" class="cls-13"/>
   <path stroke="null" id="svg_118" d="m1251.03301,993.05282l-6.92604,0a13.34417,13.34417 0 0 0 13.05558,15.92989a12.88243,12.88243 0 0 0 2.42411,-0.23087a49.6366,49.6366 0 0 0 0.68106,-6.09491a9.23472,9.23472 0 0 0 -9.23472,-9.60411z" class="cls-4"/>
   <line stroke="null" id="svg_119" y2="1042.57398" x2="1278.52937" y1="1032.13875" x1="1278.52937" class="cls-6"/>
   <line stroke="null" id="svg_120" y2="1042.57398" x2="1291.26174" y1="1032.13875" x1="1291.26174" class="cls-6"/>
   <path stroke="null" id="svg_121" d="m1208.66874,1042.60861c28.30441,-2.85122 45.18085,-10.51603 51.31039,-26.82685" class="cls-17"/>
   <path stroke="null" id="svg_122" d="m747.16379,435.27594a273.95941,273.95941 0 0 0 -42.83754,-0.47328c-20.40872,1.67379 -47.84737,7.01838 -58.87132,12.35143s-53.23814,24.16033 -41.8679,30.47456c10.38906,5.7717 32.18299,-2.90894 32.18299,-2.90894s-21.74776,19.99316 -25.48782,28.36212s8.62292,13.06712 8.62292,13.06712c3.25524,14.29072 17.823,8.14964 17.823,8.14964c9.177,19.51988 58.75588,-22.77512 58.75588,-22.77512a121.94443,121.94443 0 0 0 35.35742,-1.4891s6.27961,3.52074 16.35699,8.41514l-0.03463,-73.17358z" class="cls-15"/>
   <path stroke="null" id="svg_123" d="m871.02443,533.19857c92.61266,-43.99188 -41.63703,-208.35829 -89.1381,-246.57847l-26.61907,107.66525l33.56819,46.30056c-14.70629,-2.53955 -28.76614,-4.2826 -41.67166,-5.30996l0,73.17358c29.38948,14.29072 91.14665,40.33262 123.86063,24.74904z" class="cls-3"/>
   <path stroke="null" id="svg_124" d="m631.33736,475.93178c8.2189,-6.79906 21.86319,-17.78837 32.04447,-24.41428" class="cls-14"/>
   <path stroke="null" id="svg_125" d="m674.60201,467.75906c-23.65242,15.31809 -45.20394,35.78453 -55.87003,46.4968" class="cls-14"/>
   <path stroke="null" id="svg_126" d="m685.09495,485.0857c-16.16075,11.0932 -34.91877,27.91193 -47.16631,39.45533" class="cls-14"/>
   <path stroke="null" id="svg_127" d="m962.94448,478.86381a6.61437,6.61437 0 0 1 6.60282,6.60282l0,0.98119a6.61437,6.61437 0 0 1 -6.60282,6.60282l-34.01839,0l0,-14.18683l34.01839,0m0,-9.23472l-42.00642,0a1.24669,1.24669 0 0 0 -1.24669,1.25823l0,30.18598a1.24669,1.24669 0 0 0 1.24669,1.24669l42.00642,0a15.83754,15.83754 0 0 0 15.83754,-15.87217l0,-1.01582a15.83754,15.83754 0 0 0 -15.83754,-15.83754l0,0.03463z" class="cls-5"/>
   <path stroke="null" id="svg_128" d="m912.15354,464.65389c-34.39932,0 -50.29457,-27.41556 -50.29457,-27.41556l23.08679,100.58915l54.34631,0l23.08679,-100.58915a59.04447,59.04447 0 0 1 -50.22531,27.41556z" class="cls-5"/>
   <path stroke="null" id="svg_129" d="m912.15354,464.65389a59.04447,59.04447 0 0 0 50.29457,-27.41556l-100.58915,0s15.89526,27.41556 50.29457,27.41556z" class="cls-4"/>
  </g>
 </g>
</svg>